Coordinates
version=1
nRows=26
nColumns=18
inDegrees=no

Units are S.I. units (second, meters, Newtons, ...)
If the header above contains a line with 'inDegrees', this indicates whether rotational values are in degrees (yes) or radians (no).

endheader
time	ground_thorax_rot_x	ground_thorax_rot_y	ground_thorax_rot_z	ground_thorax_tx	ground_thorax_ty	ground_thorax_tz	clav_prot	clav_elev	scapula_abduction	scapula_elevation	scapula_upward_rot	scapula_winging	shoulder_elv	plane_of_elev	axial_rot	elbow_flexion	pro_sup
      7.74000000	      2.02864252	     65.11690360	     -5.92743786	     -2.05333914	     -0.01804622	      0.46580311	     -1.34623747	     -5.56029141	     -1.39192811	     -4.36850974	      9.43124716	      1.42672568	     59.01884463	      8.56170498	     -2.69526982	     19.48817823	     -8.68498137
      7.76000000	      2.90674851	     64.73168529	     -6.46035890	     -2.01832622	     -0.01735338	      0.45161044	     -1.55814434	     -6.36129368	     -1.58256855	     -5.13065084	      9.43624299	      1.75001042	     58.60004217	      8.45721299	     -3.43777000	     19.36193267	     -8.71925963
      7.78000000	      3.61951591	     64.72304759	     -7.22705368	     -1.98460915	     -0.01634425	      0.44215696	     -1.47330917	     -7.01322877	     -1.86733304	     -5.39800228	      8.60421475	      2.16153623	     56.94444784	      8.37230427	     -3.47088635	     20.17963831	     -8.47493155
      7.80000000	      3.61745422	     64.83137775	     -7.44909982	     -1.96524714	     -0.01770626	      0.43780985	     -1.56517246	     -6.98811521	     -1.89861382	     -5.45954885	      8.80185934	      2.13453394	     57.14372488	      8.44613266	     -3.51689911	     20.25643936	     -8.46867447
      7.82000000	      4.21447918	     65.44597013	     -8.68117118	     -1.98381449	     -0.01816390	      0.44755693	     -1.85541184	     -8.14221697	     -2.10682263	     -6.60448301	      8.90000283	      2.61582340	     55.87887431	      7.74704679	     -3.03054111	     21.21185508	     -7.93516981
      7.84000000	      4.28626243	     65.37594439	     -8.74098943	     -1.97531393	     -0.01913792	      0.44567396	     -1.94251298	     -8.11068671	     -2.15240469	     -6.64467053	      9.06360815	      2.59380403	     56.03339993	      7.82148675	     -3.02979408	     21.31766111	     -7.90336209
      7.86000000	      5.24422885	     65.78084982	    -10.23043646	     -1.95959995	     -0.02094601	      0.44504428	     -1.97450676	     -8.06267914	     -2.48978051	     -6.43601340	      8.66537836	      2.69851447	     53.74026159	      7.28627494	     -2.01074683	     25.03376308	     -6.52713117
      7.88000000	      5.33800235	     65.73111140	    -10.11863451	     -1.95029914	     -0.02215767	      0.44096279	     -2.21296773	     -7.90196613	     -2.62731571	     -6.47756268	      9.11753467	      2.60936097	     54.28162575	      7.22585389	     -2.15227975	     24.98151462	     -6.50885475
      7.90000000	      5.28412431	     66.46450807	    -11.31666280	     -1.89096924	     -0.02129361	      0.43786057	     -1.97848115	     -8.04606999	     -2.47194600	     -6.43730612	      8.70643562	      2.68289130	     53.84793201	      7.21982071	     -2.06243877	     24.93511713	     -6.45026668
      7.92000000	     10.78020744	     68.51807089	    -17.27725121	     -1.89168957	     -0.02489193	      0.42835818	     -8.59002927	     -1.26647410	     -4.14715746	     -5.93457384	     23.63523546	     -1.76685021	     38.72370906	      4.27811689	     -2.48669556	     23.47443903	     13.07956738
      7.94000000	     10.56902524	     67.01733283	    -15.84522482	     -1.88624682	     -0.02333031	      0.41578464	     -6.04957242	     -0.15219876	     -4.91644799	     -2.82257270	     17.83112685	     -0.91121022	     42.97091282	      9.02558660	     -2.55791278	     23.51051657	     13.03651245
      7.96000000	     11.76922889	     68.06746781	    -17.69189178	     -1.87799559	     -0.02807811	      0.41727757	     -6.98727185	     -2.46473624	     -4.62985365	     -5.49171025	     19.30971251	     -0.53562341	     43.70289179	      7.31457365	     -3.57656999	     21.75740905	     13.37383533
      7.98000000	     11.75630186	     68.11025747	    -17.91369183	     -1.87147215	     -0.02661358	      0.41833257	     -6.86437522	     -2.55934434	     -4.56436903	     -5.49628619	     19.09218759	     -0.47591029	     43.34148331	      7.33459494	     -3.51999026	     21.86914578	     13.40077893
      8.00000000	     12.25274382	     66.66165286	    -19.02648891	     -1.86728361	     -0.02468843	      0.42064895	     -7.15653118	     -3.55145520	     -4.61301727	     -6.48709573	     19.31387797	     -0.16066790	     42.27950536	      7.35317773	     -4.22330881	     22.48582834	     13.50903547
      8.02000000	     12.20776402	     66.56159939	    -19.28498732	     -1.84539367	     -0.02848512	      0.41460721	     -7.40808931	     -3.48368020	     -4.66977860	     -6.60489766	     19.80386510	     -0.25850587	     42.95835294	      7.47136014	     -4.32610240	     22.53662333	     13.49318685
      8.04000000	     15.62363496	     66.00650806	    -22.40234601	     -1.86634482	     -0.02264445	      0.41293222	     -6.84635879	     -4.72352260	     -3.61380202	     -7.60420304	     19.48852029	      0.10205910	     44.92141503	      7.15468752	     -4.92658143	     21.11267665	     13.91067037
      8.06000000	     16.33052438	     66.74352061	    -23.57640529	     -1.87309160	     -0.02759068	      0.41975618	     -6.27240514	     -4.61937116	     -3.76417832	     -7.00122811	     18.09731940	      0.29853855	     47.96089267	      8.56692854	     -4.94800541	     19.00368859	     14.05432686
      8.08000000	     16.94486923	     66.37400860	    -24.36915524	     -1.87911246	     -0.02638260	      0.42104925	     -5.89546556	     -4.97477213	     -3.94685368	     -6.89284550	     16.92557930	      0.64340769	     49.25672936	      9.44837670	     -4.76443032	     19.00417905	     14.16943872
      8.10000000	     17.25118705	     67.95040025	    -25.13695013	     -1.85302084	     -0.02821404	      0.41838017	     -5.58455544	     -4.60817800	     -3.10654163	     -6.72289018	     17.41660265	      0.28772395	     49.90395597	      6.39829162	     -9.10907998	     22.59233682	     14.68579367
      8.12000000	     17.10748876	     67.62749052	    -24.72587441	     -1.87353868	     -0.02929694	      0.42098806	     -4.87118585	     -4.11401090	     -3.23849774	     -5.65837067	     15.82196570	      0.37468529	     50.09351000	      7.08936747	     -8.93358151	     22.55099823	     14.69701494
      8.14000000	     16.82586647	     66.62035346	    -23.76684525	     -1.87252808	     -0.03020263	      0.41444261	     -3.48140858	     -2.77765467	     -3.65400546	     -3.10139785	     12.54209763	      0.55575535	     52.58739689	     10.64337249	     -8.20668996	     22.45558399	     14.65229130
      8.16000000	     16.92452593	     66.75636295	    -24.15882510	     -1.87638214	     -0.02659354	      0.41968308	     -3.09254583	     -3.17398306	     -3.42165467	     -3.14495061	     11.76867532	      0.75505581	     51.40078240	     10.47096247	     -8.06950112	     22.27057494	     14.69740369
      8.18000000	     17.78876034	     67.39348257	    -24.42507123	     -1.86312089	     -0.02426656	      0.40877681	     -3.81028714	     -4.61304729	     -3.05522726	     -5.17849567	     13.45204178	      0.87709470	     51.63297800	      8.23684406	     -8.18216154	     20.55904312	     14.80968777
      8.20000000	     17.86411910	     67.42940861	    -24.63473941	     -1.83936090	     -0.02568421	      0.40410032	     -3.88725835	     -4.64744178	     -2.99173184	     -5.31147706	     13.70506887	      0.83899956	     51.91275635	      8.32640070	     -8.20776041	     20.64588718	     14.80054088
      8.22000000	     17.95247866	     67.25010601	    -24.63577516	     -1.84972614	     -0.02295783	      0.40591229	     -3.80083729	     -4.84239764	     -2.95524209	     -5.40439096	     13.48580026	      0.93312746	     51.49275190	      8.13096458	     -8.15286778	     20.70627366	     14.80927301
      8.24000000	     17.98097283	     66.09780086	    -24.70518987	     -1.83107107	     -0.02315178	      0.39947613	     -3.93335951	     -5.26967775	     -2.86239128	     -5.91932532	     13.77853778	      1.02534090	     50.86685833	      8.24841167	     -8.02554110	     21.94523793	     14.80143138
